<?xml version="1.0" encoding="UTF-8" standalone="no"?>
<svg
   xmlns:dc="http://purl.org/dc/elements/1.1/"
   xmlns:cc="http://creativecommons.org/ns#"
   xmlns:rdf="http://www.w3.org/1999/02/22-rdf-syntax-ns#"
   xmlns:svg="http://www.w3.org/2000/svg"
   xmlns="http://www.w3.org/2000/svg"
   xmlns:sodipodi="http://sodipodi.sourceforge.net/DTD/sodipodi-0.dtd"
   xmlns:inkscape="http://www.inkscape.org/namespaces/inkscape"
   height="73.800003"
   width="73.800003"
   fill="#fb37ff"
   version="1.1"
   x="0px"
   y="0px"
   viewBox="0 0 73.800003 73.800003"
   xml:space="preserve"
   id="svg12"
   sodipodi:docname="a11y.svg"
   inkscape:export-filename="/Users/douglasleinen/code/portfolio/src/images/a11y.svg.png"
   inkscape:export-xdpi="96"
   inkscape:export-ydpi="96"
   inkscape:version="1.0.1 (c497b03c, 2020-09-10)"><metadata
     id="metadata18"><rdf:RDF><cc:Work
         rdf:about=""><dc:format>image/svg+xml</dc:format><dc:type
           rdf:resource="http://purl.org/dc/dcmitype/StillImage" /><dc:title /></cc:Work></rdf:RDF></metadata><defs
     id="defs16" /><sodipodi:namedview
     pagecolor="#ffffff"
     bordercolor="#666666"
     borderopacity="1"
     objecttolerance="10"
     gridtolerance="10"
     guidetolerance="10"
     inkscape:pageopacity="0"
     inkscape:pageshadow="2"
     inkscape:window-width="1440"
     inkscape:window-height="829"
     id="namedview14"
     showgrid="false"
     inkscape:zoom="2.3813524"
     inkscape:cx="-19.225539"
     inkscape:cy="82.822418"
     inkscape:window-x="0"
     inkscape:window-y="23"
     inkscape:window-maximized="0"
     inkscape:current-layer="svg12"
     inkscape:document-rotation="0" /><g
     inkscape:groupmode="layer"
     id="layer1"
     inkscape:label="bg"><rect
       style="fill:#00ffff"
       id="rect241"
       width="91.124687"
       height="83.146027"
       x="-51.231392"
       y="-113.80088" /></g><path
     d="M 73.8,36.9 C 73.8,16.6 57.3,0 36.9,0 16.5,0 0,16.6 0,36.9 0,57.2 16.6,73.8 36.9,73.8 57.2,73.8 73.8,57.2 73.8,36.9 Z M 36.9,11.2 c 3.1,0 5.6,2.5 5.6,5.6 0,3.1 -2.5,5.6 -5.6,5.6 -3.1,0 -5.6,-2.5 -5.6,-5.6 0,-3 2.5,-5.6 5.6,-5.6 z m -5.6,48.9 c -0.5,1.1 -1.5,1.7 -2.6,1.7 -0.4,0 -0.8,-0.1 -1.2,-0.3 -1.5,-0.7 -2.1,-2.4 -1.4,-3.9 0,0 5.5,-12.6 6.5,-17.2 0.4,-1.6 0.6,-5.9 0.7,-7.9 0,-0.7 -0.4,-1.3 -1,-1.5 L 19.9,27.4 c -1.6,-0.5 -2.5,-2.2 -2,-3.7 0.5,-1.5 2.2,-2.2 3.7,-1.8 0,0 11.3,3.6 15.3,3.6 4,0 15.5,-3.7 15.5,-3.7 1.5,-0.4 3.2,0.5 3.6,2 0.4,1.5 -0.5,3.2 -2,3.6 l -12.3,3.7 c -0.6,0.2 -1.1,0.8 -1,1.5 0.1,2 0.3,6.3 0.7,7.9 1,4.6 6.5,17.2 6.5,17.2 0.7,1.5 0,3.2 -1.4,3.9 -0.4,0.2 -0.8,0.3 -1.2,0.3 -1.1,0 -2.2,-0.6 -2.6,-1.7 L 36.9,48.1 Z"
     id="path10"
     style="fill:#00ffff;fill-opacity:1" /></svg>
