<svg id="Component_1_1" data-name="Component 1 – 1" xmlns="http://www.w3.org/2000/svg" width="59.186" height="47.115" viewBox="0 0 59.186 47.115">
  <path id="Path_24" data-name="Path 24" d="M61.455,64.445h42.177a1.586,1.586,0,0,0,1.584-1.584V46.708a.867.867,0,1,0-1.734,0v16H61.605V40.664h41.876v2a.867.867,0,1,0,1.734,0V40.513a1.586,1.586,0,0,0-1.584-1.584H61.455a1.585,1.585,0,0,0-1.584,1.584V62.861A1.585,1.585,0,0,0,61.455,64.445Zm0,0" transform="translate(-52.95 -34.487)" fill="#4dc0d3"/>
  <path id="Path_25" data-name="Path 25" d="M59.165,41.455a2.463,2.463,0,0,0-.261-.84L55.469,34.03a2.45,2.45,0,0,0-.818-.909,2.893,2.893,0,0,0,.472-1.587V3.413A2.916,2.916,0,0,0,52.211.5H6.973A2.916,2.916,0,0,0,4.061,3.413V31.534a2.9,2.9,0,0,0,.472,1.587,2.449,2.449,0,0,0-.818.909L.281,40.615a2.463,2.463,0,0,0-.261.839c-.027.128-.019-.107-.019,3.33a2.835,2.835,0,0,0,2.831,2.831H56.353a2.835,2.835,0,0,0,2.831-2.831C59.184,41.359,59.192,41.583,59.165,41.455ZM5.795,3.413A1.18,1.18,0,0,1,6.973,2.234H52.211a1.18,1.18,0,0,1,1.179,1.179V31.534a1.18,1.18,0,0,1-1.179,1.179H6.973a1.18,1.18,0,0,1-1.179-1.179ZM1.734,44.783v-.692a2.472,2.472,0,0,0,.719.107H3.741a.867.867,0,1,0,0-1.734H2.453a.716.716,0,0,1-.635-1.048l3.435-6.585a.715.715,0,0,1,.636-.385H53.3a.715.715,0,0,1,.636.385l3.435,6.585a.716.716,0,0,1-.635,1.048H38.056a1.675,1.675,0,0,0-.106-.526l-.509-1.332h15.4a1.23,1.23,0,0,0,1.105-1.768L52.6,36.073a1.237,1.237,0,0,0-1.105-.691H46.769a.867.867,0,0,0,0,1.734h4.406l.857,1.757H7.153l.856-1.757H42.724a.867.867,0,0,0,0-1.734H7.694a1.238,1.238,0,0,0-1.105.691L5.24,38.839a1.229,1.229,0,0,0,1.105,1.768h15.4l-.509,1.332a1.663,1.663,0,0,0-.106.526H7.787a.867.867,0,1,0,0,1.734H22.893v.511a2.892,2.892,0,0,0,.247,1.17H2.831A1.1,1.1,0,0,1,1.734,44.783Zm21.155-2.319.71-1.858H35.585l.71,1.858ZM25.8,45.881a1.172,1.172,0,0,1-1.17-1.17V44.2h9.931v.512a1.172,1.172,0,0,1-1.17,1.17Zm30.556,0H36.045a2.887,2.887,0,0,0,.247-1.17V44.2h20.44a2.471,2.471,0,0,0,.719-.107v.692A1.1,1.1,0,0,1,56.353,45.881Zm0,0" transform="translate(0.001 -0.5)" fill="#4dc0d3"/>
  <path id="Path_26" data-name="Path 26" d="M239.289,20.019a.867.867,0,1,1-.867-.867A.867.867,0,0,1,239.289,20.019Zm0,0" transform="translate(-210.094 -16.996)" fill="#4dc0d3"/>
  <path id="Path_27" data-name="Path 27" d="M261.179,20.019a.867.867,0,1,1-.867-.867A.867.867,0,0,1,261.179,20.019Zm0,0" transform="translate(-229.454 -16.996)" fill="#4dc0d3"/>
  <path id="Path_28" data-name="Path 28" d="M103.921,85.733a3.2,3.2,0,1,0,3.194,3.313c.014-.1.009.516.009-9.724a1.129,1.129,0,0,0-1.422-1.091l-7.254,1.943a.974.974,0,0,0-.722.94v7.475a3.2,3.2,0,1,0,1.734,2.841V85.209l5.929-1.589v2.472A3.184,3.184,0,0,0,103.921,85.733Zm0,4.661a1.463,1.463,0,1,1,1.463-1.463A1.465,1.465,0,0,1,103.921,90.395Zm2.23-10.488h0ZM96.263,92.9a1.464,1.464,0,1,1,1.463-1.463A1.465,1.465,0,0,1,96.263,92.9Zm3.2-11.2,5.929-1.589v1.715l-5.929,1.589Zm0,0" transform="translate(-82.308 -69.211)" fill="#4dc0d3"/>
  <path id="Path_29" data-name="Path 29" d="M239.866,94.632a.867.867,0,0,0,.867-.867V85.047H242.1a1.478,1.478,0,0,0,1.477-1.477V82.351a1.478,1.478,0,0,0-1.477-1.477h-1.362V79.062a.867.867,0,0,0-1.734,0v1.812h-1.362a1.478,1.478,0,0,0-1.477,1.477v1.219a1.478,1.478,0,0,0,1.477,1.477H239v8.718A.867.867,0,0,0,239.866,94.632Zm-1.972-12.024h3.944v.705h-3.944Zm0,0" transform="translate(-208.86 -69.214)" fill="#4dc0d3"/>
  <path id="Path_30" data-name="Path 30" d="M302.835,94.632a.867.867,0,0,0,.867-.867V91.953h1.362a1.478,1.478,0,0,0,1.477-1.477v-1.22a1.478,1.478,0,0,0-1.477-1.477H303.7V79.062a.867.867,0,0,0-1.734,0V87.78h-1.362a1.478,1.478,0,0,0-1.477,1.477v1.22a1.478,1.478,0,0,0,1.477,1.477h1.362v1.812A.867.867,0,0,0,302.835,94.632Zm-1.972-5.117h3.944v.7h-3.944Zm0,0" transform="translate(-264.55 -69.214)" fill="#4dc0d3"/>
  <path id="Path_31" data-name="Path 31" d="M365.8,94.632a.867.867,0,0,0,.867-.867V88.274h1.362a1.478,1.478,0,0,0,1.477-1.477V85.578a1.478,1.478,0,0,0-1.477-1.477h-1.362V79.062a.867.867,0,1,0-1.734,0V84.1h-1.362a1.478,1.478,0,0,0-1.477,1.477V86.8a1.478,1.478,0,0,0,1.477,1.477h1.362v5.491A.867.867,0,0,0,365.8,94.632Zm-1.972-8.8h3.944v.7h-3.944Zm0,0" transform="translate(-320.24 -69.214)" fill="#4dc0d3"/>
</svg>
