<svg id="Component_4_1" data-name="Component 4 – 1" xmlns="http://www.w3.org/2000/svg" width="47.115" height="47.115" viewBox="0 0 47.115 47.115">
  <path id="Path_41" data-name="Path 41" d="M97.231,384H65.116a1.071,1.071,0,0,0-1.071,1.07l0,3.122a4.37,4.37,0,0,0,4.369,4.374H93.933A4.374,4.374,0,0,0,98.3,388.2v-3.127A1.07,1.07,0,0,0,97.231,384Z" transform="translate(-57.612 -345.452)" fill="#4dc0d3"/>
  <path id="Path_42" data-name="Path 42" d="M35.336,4.283a11.1,11.1,0,0,0-2.042.2,12.839,12.839,0,0,0-22.586,8.368,1.071,1.071,0,0,1-2.142,0,14.79,14.79,0,0,1,1.585-6.666A1.071,1.071,0,0,0,8.934,4.665,11.749,11.749,0,0,0,6.45,26.558l-.012,8.776a1.069,1.069,0,0,0,1.071,1.072h32.11a1.07,1.07,0,0,0,1.071-1.071V26.543a11.772,11.772,0,0,0-5.354-22.26ZM15.671,29.74a1.073,1.073,0,0,1-1.508-.148c-.353-.432-3.455-4.293-3.455-7.1a1.071,1.071,0,1,1,2.142,0c0,1.55,1.822,4.346,2.97,5.745A1.073,1.073,0,0,1,15.671,29.74Zm8.957-.828a1.071,1.071,0,1,1-2.142,0V22.487a1.071,1.071,0,1,1,2.142,0v6.425Zm8.324.68A1.071,1.071,0,0,1,31.3,28.233c1.148-1.4,2.97-4.2,2.97-5.746a1.071,1.071,0,1,1,2.142,0C36.407,25.3,33.305,29.159,32.952,29.591Z" fill="#4dc0d3"/>
</svg>
