<svg id="Component_2_1" data-name="Component 2 – 1" xmlns="http://www.w3.org/2000/svg" width="53.626" height="35.521" viewBox="0 0 53.626 35.521">
  <path id="Path_32" data-name="Path 32" d="M48.831,15.334C41.748,3.7,31.078,11.793,31.078,11.793a5.531,5.531,0,0,1-2.835.955l-2.858,0a5.493,5.493,0,0,1-2.834-.952S11.88,3.7,4.8,15.337.568,39.639.568,39.639c.5,3.1,2.148,5.172,5.258,4.912S15.658,36.2,15.658,36.2a3.836,3.836,0,0,1,2.586-1.212l17.134,0a3.83,3.83,0,0,1,2.585,1.212s6.732,8.1,9.838,8.354,4.758-1.812,5.255-4.912C53.055,39.636,55.914,26.969,48.831,15.334ZM20.374,24.806H16.7v3.541a3.424,3.424,0,0,1-1.982.579,2.394,2.394,0,0,1-1.746-.648V24.807H9.5a2.79,2.79,0,0,1-.549-1.613,3.7,3.7,0,0,1,.479-2.114h3.675V17.406a3.994,3.994,0,0,1,1.843-.374,4.859,4.859,0,0,1,1.885.443l-.015,3.6h3.47a3.455,3.455,0,0,1,.656,1.718A4.34,4.34,0,0,1,20.374,24.806Zm16.852,4.036a2.908,2.908,0,1,1,2.909-2.908A2.9,2.9,0,0,1,37.226,28.842Zm0-8a2.908,2.908,0,1,1,2.909-2.907A2.9,2.9,0,0,1,37.226,20.841Zm7.242,4.3a2.908,2.908,0,1,1,2.909-2.908A2.9,2.9,0,0,1,44.468,25.136Z" transform="translate(0 -9.052)" fill="#4dc0d3"/>
</svg>
