<svg id="Component_3_1" data-name="Component 3 – 1" xmlns="http://www.w3.org/2000/svg" width="47.115" height="47.115" viewBox="0 0 47.115 47.115">
  <path id="Path_33" data-name="Path 33" d="M121,211h2.761v16.564H121Zm0,0" transform="translate(-109.865 -191.583)" fill="#4dc0d3"/>
  <path id="Path_34" data-name="Path 34" d="M156.521,211h-2.761v19.324H151V238.7h8.282v-8.374h-2.761Zm0,0" transform="translate(-137.105 -191.583)" fill="#4dc0d3"/>
  <path id="Path_35" data-name="Path 35" d="M276.521,211h-2.761v19.324H271V238.7h8.282v-8.374h-2.761Zm0,0" transform="translate(-246.062 -191.583)" fill="#4dc0d3"/>
  <path id="Path_36" data-name="Path 36" d="M0,0V16.656H47.115V0ZM8.374,13.9H5.613V11.135H8.374Zm0-5.521H5.613V5.613H8.374ZM13.9,13.9H11.135V11.135H13.9Zm0-5.521H11.135V5.613H13.9ZM27.7,13.9H19.416V11.135H27.7Zm0-5.521H19.416V5.613H27.7ZM35.98,13.9H33.22V11.135H35.98Zm0-5.521H33.22V5.613H35.98ZM41.5,13.9H38.741V11.135H41.5Zm0-5.521H38.741V5.613H41.5Zm0,0" fill="#4dc0d3"/>
  <path id="Path_37" data-name="Path 37" d="M393.761,230.324H391V238.7h11.135V211h-8.374Zm0,0" transform="translate(-355.02 -191.583)" fill="#4dc0d3"/>
  <path id="Path_38" data-name="Path 38" d="M8.374,211H0v27.7H11.135v-8.374H8.374Zm0,0" transform="translate(0 -191.583)" fill="#4dc0d3"/>
  <path id="Path_39" data-name="Path 39" d="M361,211h2.761v16.564H361Zm0,0" transform="translate(-327.78 -191.583)" fill="#4dc0d3"/>
  <path id="Path_40" data-name="Path 40" d="M241,211h2.761v16.564H241Zm0,0" transform="translate(-218.823 -191.583)" fill="#4dc0d3"/>
</svg>
