<svg id="Component_5_1" data-name="Component 5 – 1" xmlns="http://www.w3.org/2000/svg" width="47.301" height="47.301" viewBox="0 0 47.301 47.301">
  <path id="Path_43" data-name="Path 43" d="M0,13.912H16.138V0H0ZM2.782,2.782H13.356V11.13H2.782Z" fill="#4dc0d3"/>
  <path id="Path_44" data-name="Path 44" d="M0,214.236H16.138V184H0Zm2.782-27.453H13.356v12.055L10,201.634l-4.157-1.385-3.061,1.02Zm0,17.419,3.061-1.02,4.747,1.582,2.765-2.3v8.994H2.782Z" transform="translate(0 -166.935)" fill="#4dc0d3"/>
  <path id="Path_45" data-name="Path 45" d="M208,352.138h28.01V336H208Zm2.782-13.356h22.445v10.573H210.782Z" transform="translate(-188.708 -304.837)" fill="#4dc0d3"/>
  <path id="Path_46" data-name="Path 46" d="M208,0V28.01h28.01V0Zm18.55,25.227H217.46V22.356a4,4,0,0,1,3.992-3.992h1.106a4,4,0,0,1,3.992,3.992Zm-6.863-11.964A2.319,2.319,0,1,1,222,15.582,2.321,2.321,0,0,1,219.686,13.263Zm13.541,11.964h-3.9V22.356a6.777,6.777,0,0,0-3.384-5.861,5.1,5.1,0,1,0-7.887,0,6.777,6.777,0,0,0-3.384,5.861v2.871h-3.9V2.782h22.445Z" transform="translate(-188.708)" fill="#4dc0d3"/>
  <path id="Path_47" data-name="Path 47" d="M59.95,246.433a2.78,2.78,0,1,0-2.78-2.78A2.784,2.784,0,0,0,59.95,246.433Z" transform="translate(-51.868 -218.532)" fill="#4dc0d3"/>
</svg>
